<svg width="31" height="60" viewBox="0 0 31 60" fill="none" xmlns="http://www.w3.org/2000/svg">
<path d="M0.833073 5.05878C0.566961 4.77253 0.358925 4.43581 0.220837 4.06784C0.0827465 3.69987 0.0173111 3.30786 0.0282669 2.91418C0.0392227 2.52051 0.126356 2.13288 0.284687 1.77344C0.44302 1.41399 0.669453 1.08976 0.951057 0.819266C1.23266 0.548771 1.56392 0.337304 1.92593 0.19694C2.28794 0.0565759 2.67359 -0.0099372 3.06088 0.0011993C3.44818 0.0123358 3.82952 0.100903 4.18314 0.261845C4.53676 0.422787 4.85573 0.652951 5.12184 0.939196L30.1937 27.9234C30.7115 28.48 31 29.2171 31 29.9832C31 30.7492 30.7115 31.4863 30.1937 32.0429L5.12184 59.0301C4.85749 59.3226 4.53859 59.5588 4.18367 59.725C3.82875 59.8912 3.44488 59.984 3.05437 59.9981C2.66385 60.0122 2.27447 59.9473 1.90884 59.8072C1.54322 59.667 1.20863 59.4544 0.924519 59.1817C0.640409 58.909 0.412437 58.5816 0.253847 58.2186C0.0952549 57.8556 0.00920677 57.4642 0.000699997 57.067C-0.00780869 56.6699 0.0613918 56.2751 0.204285 55.9054C0.347176 55.5357 0.560911 55.1985 0.833073 54.9135L23.9936 29.9832L0.833073 5.05878Z" fill="#212121"/>
</svg>
