<svg width="44" height="20" viewBox="0 0 44 20" fill="none" xmlns="http://www.w3.org/2000/svg">
<rect width="44" height="20" rx="10" fill="white"/>
<path d="M37.9077 10.0007C37.9077 11.0369 37.4961 12.0307 36.7634 12.7634C36.0307 13.4961 35.0369 13.9077 34.0007 13.9077C32.9645 13.9077 31.9708 13.4961 31.2381 12.7634C30.5054 12.0307 30.0938 11.0369 30.0938 10.0007C30.0938 8.96453 30.5054 7.97078 31.2381 7.23808C31.9708 6.50538 32.9645 6.09375 34.0007 6.09375C35.0369 6.09375 36.0307 6.50538 36.7634 7.23808C37.4961 7.97078 37.9077 8.96453 37.9077 10.0007Z" fill="#212121"/>
<path fill-rule="evenodd" clip-rule="evenodd" d="M34 3C34.1295 3 34.2537 3.05145 34.3453 3.14304C34.4369 3.23463 34.4884 3.35885 34.4884 3.48837V4.13953C34.4884 4.26906 34.4369 4.39328 34.3453 4.48487C34.2537 4.57645 34.1295 4.62791 34 4.62791C33.8705 4.62791 33.7463 4.57645 33.6547 4.48487C33.5631 4.39328 33.5116 4.26906 33.5116 4.13953V3.48837C33.5116 3.35885 33.5631 3.23463 33.6547 3.14304C33.7463 3.05145 33.8705 3 34 3ZM29.0505 5.05051C29.1421 4.95906 29.2662 4.90769 29.3956 4.90769C29.525 4.90769 29.6492 4.95906 29.7407 5.05051L29.9967 5.30577C30.0857 5.39783 30.1349 5.52117 30.1339 5.64923C30.1328 5.77728 30.0815 5.89979 29.991 5.99038C29.9005 6.08097 29.7781 6.13239 29.65 6.13356C29.522 6.13474 29.3986 6.08557 29.3064 5.99665L29.0505 5.74074C28.9591 5.64917 28.9077 5.52505 28.9077 5.39563C28.9077 5.26621 28.9591 5.14208 29.0505 5.05051ZM38.9495 5.05051C39.0409 5.14208 39.0923 5.26621 39.0923 5.39563C39.0923 5.52505 39.0409 5.64917 38.9495 5.74074L38.6936 5.99665C38.601 6.08292 38.4786 6.12988 38.352 6.12765C38.2255 6.12542 38.1048 6.07416 38.0153 5.98468C37.9258 5.89521 37.8746 5.77449 37.8724 5.64797C37.8701 5.52145 37.9171 5.399 38.0033 5.30642L38.2593 5.05051C38.3508 4.95906 38.475 4.90769 38.6044 4.90769C38.7338 4.90769 38.8579 4.95906 38.9495 5.05051ZM27 10C27 9.87048 27.0515 9.74626 27.143 9.65467C27.2346 9.56308 27.3588 9.51163 27.4884 9.51163H28.1395C28.2691 9.51163 28.3933 9.56308 28.4849 9.65467C28.5765 9.74626 28.6279 9.87048 28.6279 10C28.6279 10.1295 28.5765 10.2537 28.4849 10.3453C28.3933 10.4369 28.2691 10.4884 28.1395 10.4884H27.4884C27.3588 10.4884 27.2346 10.4369 27.143 10.3453C27.0515 10.2537 27 10.1295 27 10ZM39.3721 10C39.3721 9.87048 39.4235 9.74626 39.5151 9.65467C39.6067 9.56308 39.7309 9.51163 39.8605 9.51163H40.5116C40.6412 9.51163 40.7654 9.56308 40.857 9.65467C40.9485 9.74626 41 9.87048 41 10C41 10.1295 40.9485 10.2537 40.857 10.3453C40.7654 10.4369 40.6412 10.4884 40.5116 10.4884H39.8605C39.7309 10.4884 39.6067 10.4369 39.5151 10.3453C39.4235 10.2537 39.3721 10.1295 39.3721 10ZM38.0033 14.0033C38.0949 13.9119 38.219 13.8605 38.3485 13.8605C38.4779 13.8605 38.602 13.9119 38.6936 14.0033L38.9495 14.2593C38.9975 14.304 39.036 14.3579 39.0626 14.4178C39.0893 14.4777 39.1037 14.5424 39.1049 14.6079C39.106 14.6735 39.0939 14.7386 39.0694 14.7995C39.0448 14.8603 39.0083 14.9155 38.9619 14.9619C38.9155 15.0083 38.8603 15.0448 38.7995 15.0694C38.7386 15.0939 38.6735 15.106 38.6079 15.1049C38.5424 15.1037 38.4777 15.0893 38.4178 15.0626C38.3579 15.036 38.304 14.9975 38.2593 14.9495L38.0033 14.6936C37.9119 14.602 37.8605 14.4779 37.8605 14.3485C37.8605 14.219 37.9119 14.0949 38.0033 14.0033ZM29.9967 14.0033C30.0881 14.0949 30.1395 14.219 30.1395 14.3485C30.1395 14.4779 30.0881 14.602 29.9967 14.6936L29.7407 14.9495C29.696 14.9975 29.6421 15.036 29.5822 15.0626C29.5223 15.0893 29.4576 15.1037 29.3921 15.1049C29.3265 15.106 29.2614 15.0939 29.2005 15.0694C29.1397 15.0448 29.0845 15.0083 29.0381 14.9619C28.9917 14.9155 28.9552 14.8603 28.9306 14.7995C28.9061 14.7386 28.894 14.6735 28.8951 14.6079C28.8963 14.5424 28.9107 14.4777 28.9374 14.4178C28.964 14.3579 29.0025 14.304 29.0505 14.2593L29.3058 14.0033C29.3511 13.958 29.405 13.922 29.4642 13.8974C29.5235 13.8728 29.587 13.8602 29.6512 13.8602C29.7154 13.8602 29.7789 13.8728 29.8382 13.8974C29.8974 13.922 29.9513 13.958 29.9967 14.0033ZM34 15.3721C34.1295 15.3721 34.2537 15.4235 34.3453 15.5151C34.4369 15.6067 34.4884 15.7309 34.4884 15.8605V16.5116C34.4884 16.6412 34.4369 16.7654 34.3453 16.857C34.2537 16.9485 34.1295 17 34 17C33.8705 17 33.7463 16.9485 33.6547 16.857C33.5631 16.7654 33.5116 16.6412 33.5116 16.5116V15.8605C33.5116 15.7309 33.5631 15.6067 33.6547 15.5151C33.7463 15.4235 33.8705 15.3721 34 15.3721Z" fill="#212121"/>
<circle cx="10" cy="10" r="7" fill="#212121"/>
</svg>
