<svg width="24" height="13" viewBox="0 0 24 13" fill="none" xmlns="http://www.w3.org/2000/svg">
<path d="M21.9765 0.33595C22.091 0.227752 22.2257 0.143166 22.3729 0.08702C22.5201 0.0308743 22.6769 0.0042687 22.8343 0.00872331C22.9918 0.0131779 23.1468 0.048605 23.2906 0.112982C23.4344 0.177359 23.5641 0.269424 23.6723 0.383922C23.7805 0.49842 23.8651 0.633109 23.9212 0.780297C23.9774 0.927485 24.004 1.08429 23.9995 1.24176C23.9951 1.39923 23.9596 1.55428 23.8953 1.69806C23.8309 1.84184 23.7388 1.97153 23.6243 2.07973L12.8307 12.2737C12.608 12.4843 12.3132 12.6016 12.0067 12.6016C11.7003 12.6016 11.4055 12.4843 11.1828 12.2737L0.387958 2.07973C0.270954 1.97224 0.176471 1.84258 0.11 1.69827C0.043529 1.55397 0.00639676 1.39789 0.000754813 1.23911C-0.00488713 1.08033 0.0210795 0.922011 0.0771403 0.773351C0.133203 0.62469 0.218242 0.48865 0.327323 0.373133C0.436407 0.257616 0.567354 0.164925 0.71256 0.100443C0.857767 0.0359612 1.01434 0.000974706 1.17318 -0.00248428C1.33202 -0.00594326 1.48997 0.022193 1.63785 0.0802918C1.78573 0.138391 1.92058 0.225293 2.03459 0.335951L12.0067 9.75282L21.9765 0.33595Z" fill="#ffffff"/>
</svg>
