<svg width="24" height="13" viewBox="0 0 24 13" fill="none" xmlns="http://www.w3.org/2000/svg">
<path d="M21.9765 12.2656C22.091 12.3738 22.2257 12.4584 22.3729 12.5145C22.5201 12.5707 22.6769 12.5973 22.8343 12.5928C22.9918 12.5884 23.1468 12.553 23.2906 12.4886C23.4344 12.4242 23.5641 12.3321 23.6723 12.2176C23.7805 12.1031 23.8651 11.9685 23.9212 11.8213C23.9774 11.6741 24.004 11.5173 23.9995 11.3598C23.9951 11.2023 23.9596 11.0473 23.8953 10.9035C23.8309 10.7597 23.7388 10.63 23.6243 10.5218L12.8307 0.327818C12.608 0.117298 12.3132 -5.10847e-07 12.0067 -5.24242e-07C11.7003 -5.37637e-07 11.4055 0.117298 11.1828 0.327818L0.387958 10.5218C0.270954 10.6293 0.176471 10.759 0.11 10.9033C0.043529 11.0476 0.00639676 11.2037 0.000754813 11.3625C-0.00488713 11.5212 0.0210795 11.6796 0.0771403 11.8282C0.133203 11.9769 0.218242 12.1129 0.327323 12.2284C0.436407 12.3439 0.567354 12.4366 0.71256 12.5011C0.857767 12.5656 1.01434 12.6006 1.17318 12.604C1.33202 12.6075 1.48997 12.5794 1.63785 12.5213C1.78573 12.4632 1.92058 12.3763 2.03459 12.2656L12.0067 2.84874L21.9765 12.2656Z" fill="#212121"/>
</svg>
