<svg width="31" height="60" viewBox="0 0 31 60" fill="none" xmlns="http://www.w3.org/2000/svg">
<path d="M30.1669 5.05878C30.433 4.77253 30.6411 4.43581 30.7792 4.06784C30.9173 3.69987 30.9827 3.30786 30.9717 2.91418C30.9608 2.52051 30.8736 2.13288 30.7153 1.77344C30.557 1.41399 30.3305 1.08976 30.0489 0.819266C29.7673 0.548771 29.4361 0.337304 29.0741 0.19694C28.7121 0.0565759 28.3264 -0.0099372 27.9391 0.0011993C27.5518 0.0123358 27.1705 0.100903 26.8169 0.261845C26.4632 0.422787 26.1443 0.652951 25.8782 0.939196L0.806261 27.9234C0.288493 28.48 0 29.2171 0 29.9832C0 30.7492 0.288493 31.4863 0.806261 32.0429L25.8782 59.0301C26.1425 59.3226 26.4614 59.5588 26.8163 59.725C27.1713 59.8912 27.5551 59.984 27.9456 59.9981C28.3361 60.0122 28.7255 59.9473 29.0912 59.8072C29.4568 59.667 29.7914 59.4544 30.0755 59.1817C30.3596 58.909 30.5876 58.5816 30.7462 58.2186C30.9047 57.8556 30.9908 57.4642 30.9993 57.067C31.0078 56.6699 30.9386 56.2751 30.7957 55.9054C30.6528 55.5357 30.4391 55.1985 30.1669 54.9135L7.00639 29.9832L30.1669 5.05878Z" fill="#212121"/>
</svg>
