<svg width="26" height="35" viewBox="0 0 26 35" fill="none" xmlns="http://www.w3.org/2000/svg">
<path d="M12.6 16.625C11.4065 16.625 10.2619 16.1641 9.41802 15.3436C8.57411 14.5231 8.1 13.4103 8.1 12.25C8.1 11.0897 8.57411 9.97688 9.41802 9.15641C10.2619 8.33594 11.4065 7.875 12.6 7.875C13.7935 7.875 14.9381 8.33594 15.782 9.15641C16.6259 9.97688 17.1 11.0897 17.1 12.25C17.1 12.8245 16.9836 13.3934 16.7575 13.9242C16.5313 14.455 16.1998 14.9373 15.782 15.3436C15.3641 15.7498 14.868 16.0721 14.3221 16.292C13.7761 16.5118 13.1909 16.625 12.6 16.625ZM12.6 0C9.25827 0 6.05341 1.29062 3.69045 3.58794C1.3275 5.88526 0 9.0011 0 12.25C0 21.4375 12.6 35 12.6 35C12.6 35 25.2 21.4375 25.2 12.25C25.2 9.0011 23.8725 5.88526 21.5095 3.58794C19.1466 1.29062 15.9417 0 12.6 0Z" fill="#94270F"/>
</svg>
