<svg width="44" height="20" viewBox="0 0 44 20" fill="none" xmlns="http://www.w3.org/2000/svg">
<rect x="0.5" y="0.5" width="43" height="19" rx="9.5" fill="#212121" stroke="#212121"/>
<circle cx="34" cy="10" r="7" fill="white"/>
<path d="M10 17C13.8661 17 17 13.8661 17 10C17 9.6759 16.5142 9.622 16.3469 9.8999C15.9901 10.4909 15.5034 10.993 14.9238 11.3681C14.3442 11.7432 13.6868 11.9815 13.0015 12.0649C12.3161 12.1483 11.6208 12.0747 10.9681 11.8496C10.3155 11.6245 9.72258 11.2538 9.2344 10.7656C8.74621 10.2774 8.37552 9.68453 8.15041 9.03187C7.92529 8.3792 7.85165 7.68386 7.93507 6.99852C8.01848 6.31317 8.25677 5.6558 8.63187 5.07619C9.00698 4.49658 9.50906 4.00993 10.1001 3.6531C10.378 3.4851 10.3241 3 10 3C6.1339 3 3 6.1339 3 10C3 13.8661 6.1339 17 10 17Z" fill="white"/>
</svg>
